# xmcd
#
# Track frame offsets: 
#        150
#        10982
#        24472
#        43162
#        70609
#        89829
#        103303
#        121586
#        134831
#        147967
#        166164
#        179460
#        192183
#        204695
#        216240
#
# Disc length: 3195 seconds
#
# Revision: 0
# Processed by: cddbd v1.5.2PL0 Copyright (c) Steve Scherf et al.
# Submitted via: ExactAudioCopyFreeDBPlugin 1.0
#
DISCID=e20c790f
DTITLE=John Jorgenson - Divertuoso - J2B2 - From the Crow's Nest
DYEAR=2015
DGENRE=Bluegrass
TTITLE0=Beautiful Sound
TTITLE1=I Will Shelter You
TTITLE2=Wait a Minute
TTITLE3=Wandering Boy
TTITLE4=There Is a Time
TTITLE5=Ladies Bluff
TTITLE6=Travelin' Angels
TTITLE7=No One Else
TTITLE8=Die Tryin'
TTITLE9=If You Could See
TTITLE10=Feather
TTITLE11=A Heart Always True
TTITLE12=Let Me Get Out of This World Alive
TTITLE13=Gina
TTITLE14=Whiskey Lullaby
EXTD=
EXTT0=
EXTT1=
EXTT2=
EXTT3=
EXTT4=
EXTT5=
EXTT6=
EXTT7=
EXTT8=
EXTT9=
EXTT10=
EXTT11=
EXTT12=
EXTT13=
EXTT14=
PLAYORDER=
